<mxfile host="app.diagrams.net" modified="2024-01-18T21:48:35.264Z" agent="Mozilla/5.0 (Windows NT 10.0; Win64; x64) AppleWebKit/537.36 (KHTML, like Gecko) Chrome/120.0.0.0 Safari/537.36" etag="pWeZOOx0SmkpqDBbX4mx" version="22.1.21" type="google">
  <diagram id="prtHgNgQTEPvFCAcTncT" name="Page-1">
    <mxGraphModel grid="1" page="1" gridSize="10" guides="1" tooltips="1" connect="1" arrows="1" fold="1" pageScale="1" pageWidth="827" pageHeight="1169" math="0" shadow="0">
      <root>
        <mxCell id="0" />
        <mxCell id="1" parent="0" />
        <mxCell id="dNxyNK7c78bLwvsdeMH5-11" value="Architecture&amp;nbsp;" style="swimlane;html=1;startSize=20;horizontal=1;containerType=tree;glass=0;" vertex="1" parent="1">
          <mxGeometry x="60" y="50" width="910" height="620" as="geometry" />
        </mxCell>
        <mxCell id="b315H4M1gstyqt09m6Y2-3" value="view" style="swimlane;whiteSpace=wrap;html=1;startSize=23;" vertex="1" parent="dNxyNK7c78bLwvsdeMH5-11">
          <mxGeometry x="60" y="85" width="200" height="200" as="geometry" />
        </mxCell>
        <mxCell id="b315H4M1gstyqt09m6Y2-4" value="&lt;font style=&quot;font-size: 24px;&quot;&gt;&lt;br style=&quot;border-color: var(--border-color); font-weight: 700; text-align: left;&quot;&gt;&lt;span style=&quot;font-weight: 700; text-align: left;&quot;&gt;(Connexion,&lt;/span&gt;&lt;br style=&quot;border-color: var(--border-color); font-weight: 700; text-align: left;&quot;&gt;&lt;span style=&quot;font-weight: 700; text-align: left;&quot;&gt;Chatpage,&lt;/span&gt;&lt;br style=&quot;border-color: var(--border-color); font-weight: 700; text-align: left;&quot;&gt;&lt;span style=&quot;font-weight: 700; text-align: left;&quot;&gt;Messagerie)&lt;/span&gt;&lt;/font&gt;" style="text;html=1;align=center;verticalAlign=middle;resizable=0;points=[];autosize=1;strokeColor=none;fillColor=none;" vertex="1" parent="b315H4M1gstyqt09m6Y2-3">
          <mxGeometry x="20" y="43" width="160" height="130" as="geometry" />
        </mxCell>
        <mxCell id="b315H4M1gstyqt09m6Y2-6" value="" style="endArrow=classic;startArrow=classic;html=1;rounded=0;exitX=1;exitY=0.5;exitDx=0;exitDy=0;entryX=0;entryY=0.5;entryDx=0;entryDy=0;" edge="1" parent="dNxyNK7c78bLwvsdeMH5-11" source="b315H4M1gstyqt09m6Y2-3" target="b315H4M1gstyqt09m6Y2-10">
          <mxGeometry width="50" height="50" relative="1" as="geometry">
            <mxPoint x="320" y="150" as="sourcePoint" />
            <mxPoint x="370" y="100" as="targetPoint" />
          </mxGeometry>
        </mxCell>
        <mxCell id="b315H4M1gstyqt09m6Y2-8" value="TCP/UDP" style="edgeLabel;html=1;align=center;verticalAlign=middle;resizable=0;points=[];" connectable="0" vertex="1" parent="b315H4M1gstyqt09m6Y2-6">
          <mxGeometry x="-0.3096" y="4" relative="1" as="geometry">
            <mxPoint x="1" as="offset" />
          </mxGeometry>
        </mxCell>
        <mxCell id="b315H4M1gstyqt09m6Y2-10" value="Controller" style="swimlane;whiteSpace=wrap;html=1;" vertex="1" parent="dNxyNK7c78bLwvsdeMH5-11">
          <mxGeometry x="380" y="40" width="480" height="250" as="geometry" />
        </mxCell>
        <mxCell id="b315H4M1gstyqt09m6Y2-11" value="&lt;font style=&quot;font-size: 24px;&quot;&gt;(Controller,&lt;br&gt;ControllerDecouvert,&lt;br&gt;ControllerMessage)&lt;/font&gt;" style="text;html=1;align=center;verticalAlign=middle;resizable=0;points=[];autosize=1;strokeColor=none;fillColor=none;" vertex="1" parent="b315H4M1gstyqt09m6Y2-10">
          <mxGeometry x="230" y="70" width="240" height="100" as="geometry" />
        </mxCell>
        <mxCell id="b315H4M1gstyqt09m6Y2-7" value="protocole" style="swimlane;whiteSpace=wrap;html=1;" vertex="1" parent="b315H4M1gstyqt09m6Y2-10">
          <mxGeometry x="13" y="40" width="205" height="200" as="geometry" />
        </mxCell>
        <mxCell id="b315H4M1gstyqt09m6Y2-9" value="&lt;font style=&quot;font-size: 24px;&quot;&gt;(TCP/UDP &lt;br&gt;Sender,&lt;br&gt;Recever,&lt;br&gt;MessageListener)&lt;/font&gt;" style="text;html=1;align=center;verticalAlign=middle;resizable=0;points=[];autosize=1;strokeColor=none;fillColor=none;" vertex="1" parent="b315H4M1gstyqt09m6Y2-7">
          <mxGeometry x="-5" y="35" width="210" height="130" as="geometry" />
        </mxCell>
        <mxCell id="b315H4M1gstyqt09m6Y2-12" value="Modèle" style="swimlane;whiteSpace=wrap;html=1;" vertex="1" parent="dNxyNK7c78bLwvsdeMH5-11">
          <mxGeometry x="450" y="350" width="200" height="100" as="geometry" />
        </mxCell>
        <mxCell id="b315H4M1gstyqt09m6Y2-13" value="&lt;font style=&quot;font-size: 24px;&quot;&gt;Base de Donnée&lt;/font&gt;" style="text;html=1;align=center;verticalAlign=middle;resizable=0;points=[];autosize=1;strokeColor=none;fillColor=none;" vertex="1" parent="b315H4M1gstyqt09m6Y2-12">
          <mxGeometry y="40" width="200" height="40" as="geometry" />
        </mxCell>
        <mxCell id="b315H4M1gstyqt09m6Y2-14" value="" style="endArrow=none;html=1;rounded=0;exitX=0.25;exitY=0;exitDx=0;exitDy=0;entryX=0.25;entryY=1;entryDx=0;entryDy=0;" edge="1" parent="dNxyNK7c78bLwvsdeMH5-11" source="b315H4M1gstyqt09m6Y2-12" target="b315H4M1gstyqt09m6Y2-10">
          <mxGeometry width="50" height="50" relative="1" as="geometry">
            <mxPoint x="460" y="330" as="sourcePoint" />
            <mxPoint x="510" y="280" as="targetPoint" />
          </mxGeometry>
        </mxCell>
        <mxCell id="b315H4M1gstyqt09m6Y2-15" value="" style="endArrow=none;html=1;rounded=0;exitX=0.25;exitY=0;exitDx=0;exitDy=0;entryX=0.25;entryY=1;entryDx=0;entryDy=0;" edge="1" parent="dNxyNK7c78bLwvsdeMH5-11">
          <mxGeometry width="50" height="50" relative="1" as="geometry">
            <mxPoint x="580" y="350" as="sourcePoint" />
            <mxPoint x="580" y="290" as="targetPoint" />
          </mxGeometry>
        </mxCell>
        <mxCell id="b315H4M1gstyqt09m6Y2-18" value="&lt;font style=&quot;font-size: 24px;&quot;&gt;JDBC&lt;/font&gt;" style="edgeLabel;html=1;align=center;verticalAlign=middle;resizable=0;points=[];" connectable="0" vertex="1" parent="b315H4M1gstyqt09m6Y2-15">
          <mxGeometry x="0.2841" y="-3" relative="1" as="geometry">
            <mxPoint x="37" as="offset" />
          </mxGeometry>
        </mxCell>
        <mxCell id="b315H4M1gstyqt09m6Y2-16" value="&lt;font style=&quot;font-size: 24px;&quot;&gt;TCP&lt;/font&gt;" style="text;html=1;align=center;verticalAlign=middle;resizable=0;points=[];autosize=1;strokeColor=none;fillColor=none;" vertex="1" parent="1">
          <mxGeometry x="475" y="343" width="70" height="40" as="geometry" />
        </mxCell>
      </root>
    </mxGraphModel>
  </diagram>
</mxfile>
